<?xml version="1.0" encoding="UTF-8" standalone="no"?>
<svg
   xmlns:dc="http://purl.org/dc/elements/1.1/"
   xmlns:cc="http://creativecommons.org/ns#"
   xmlns:rdf="http://www.w3.org/1999/02/22-rdf-syntax-ns#"
   xmlns:svg="http://www.w3.org/2000/svg"
   xmlns="http://www.w3.org/2000/svg"
   xmlns:xlink="http://www.w3.org/1999/xlink"
   id="svg929"
   version="1.1"
   viewBox="0 0 78.298668 34.644814"
   height="34.644814mm"
   width="78.298668mm">
  <defs
     id="defs923">
    <linearGradient
       xlink:href="#linear-gradient"
       id="linearGradient884"
       gradientUnits="userSpaceOnUse"
       x1="206.12"
       y1="197.06"
       x2="206.12"
       y2="271.73999"
       gradientTransform="matrix(0.26458333,0,0,0.26458333,21.854215,70.012086)" />
    <linearGradient
       id="linear-gradient"
       x1="206.12"
       y1="197.06"
       x2="206.12"
       y2="271.73999"
       gradientUnits="userSpaceOnUse">
      <stop
         offset="0"
         stop-color="#e7040f"
         id="stop835" />
      <stop
         offset="1"
         stop-color="#ff6300"
         id="stop837" />
    </linearGradient>
    <linearGradient
       id="linear-gradient-2"
       x1="270.44"
       y1="167.02"
       x2="270.44"
       y2="271.45001"
       xlink:href="#linear-gradient"
       gradientTransform="matrix(0.26458333,0,0,0.26458333,21.854215,70.012086)" />
    <linearGradient
       id="linear-gradient-3"
       x1="334.60999"
       y1="197.06"
       x2="334.60999"
       y2="271.73999"
       xlink:href="#linear-gradient"
       gradientTransform="matrix(0.26458333,0,0,0.26458333,21.854215,70.012086)" />
    <linearGradient
       id="linear-gradient-4"
       x1="422.56"
       y1="197.06"
       x2="422.56"
       y2="297.98999"
       xlink:href="#linear-gradient"
       gradientTransform="matrix(0.26458333,0,0,0.26458333,21.854215,70.012086)" />
  </defs>
  <metadata
     id="metadata926">
    <rdf:RDF>
      <cc:Work
         rdf:about="">
        <dc:format>image/svg+xml</dc:format>
        <dc:type
           rdf:resource="http://purl.org/dc/dcmitype/StillImage" />
        <dc:title></dc:title>
      </cc:Work>
    </rdf:RDF>
  </metadata>
  <g
     transform="translate(-65.92805,-114.21331)"
     id="layer1">
    <path
       class="cls-1"
       d="m 70.89209,140.69288 a 8.73125,8.73125 0 0 1 -3.667125,-3.43959 10.302875,10.302875 0 0 1 -1.293813,-5.24933 10.197042,10.197042 0 0 1 1.293813,-5.22817 8.6809792,8.6809792 0 0 1 3.645958,-3.41577 q 2.354792,-1.19592 5.519209,-1.19592 3.164416,0 5.5245,1.18269 a 8.6809792,8.6809792 0 0 1 3.645958,3.41577 10.197042,10.197042 0 0 1 1.293812,5.22817 10.302875,10.302875 0 0 1 -1.293812,5.24933 8.747125,8.7471247 0 0 1 -3.645958,3.43959 q -2.352146,1.21973 -5.519209,1.21708 a 11.871854,11.871854 0 0 1 -5.503333,-1.20385 z m 9.170458,-8.70215 q 0,-4.78367 -3.667125,-4.78367 -3.667125,0 -3.667125,4.78367 0,4.78631 3.667125,4.78631 3.667125,0 3.667125,-4.78631 z"
       id="path849"
       style="fill:url(#linearGradient884);stroke-width:0.264583" />
    <path
       class="cls-2"
       d="m 90.95809,141.04213 c -0.656167,-0.52917 -0.98425,-1.32292 -0.98425,-2.38125 v -21.25663 q 0,-1.5875 0.98425,-2.38125 a 4.111625,4.111625 0 0 1 4.900083,0 q 0.98425,0.80963 0.98425,2.38125 v 21.26456 c 0,1.05834 -0.328084,1.85209 -0.98425,2.38125 a 4.1883542,4.1883542 0 0 1 -4.900083,0 z"
       id="path851"
       style="fill:url(#linear-gradient-2);stroke-width:0.264583" />
    <path
       class="cls-3"
       d="m 104.8884,140.69288 a 8.73125,8.73125 0 0 1 -3.66712,-3.43959 10.31875,10.31875 0 0 1 -1.29117,-5.24933 10.220854,10.220854 0 0 1 1.2991,-5.2414 8.6703958,8.6703958 0 0 1 3.64861,-3.41577 q 2.35214,-1.19591 5.51656,-1.19591 3.16442,0 5.51921,1.19591 a 8.6651042,8.6651044 0 0 1 3.64596,3.41577 10.197042,10.197042 0 0 1 1.29381,5.22817 10.302875,10.302875 0 0 1 -1.29381,5.24933 8.73125,8.73125 0 0 1 -3.64596,3.43959 q -2.35215,1.21973 -5.51921,1.21708 a 11.879792,11.879792 0 0 1 -5.50598,-1.20385 z m 9.16517,-8.70215 q 0,-4.78367 -3.66713,-4.78367 -3.66712,0 -3.66448,4.78367 0,4.78631 3.66448,4.78631 3.66448,0 3.66713,-4.78631 z"
       id="path853"
       style="fill:url(#linear-gradient-3);stroke-width:0.264583" />
    <path
       class="cls-4"
       d="m 143.29796,123.09544 a 2.9977292,2.9977292 0 0 1 0.92605,2.29658 v 13.89327 q 0,4.70694 -2.83634,7.14375 -2.83633,2.43682 -8.31056,2.42888 a 20.108333,20.108333 0 0 1 -4.01373,-0.38629 11.062229,11.062229 0 0 1 -3.20146,-1.11919 3.0559375,3.0559375 0 0 1 -1.10066,-1.00277 2.4765,2.4765 0 0 1 -0.40482,-1.38906 2.7966458,2.7966458 0 0 1 0.55827,-1.8124 1.7700625,1.7700625 0 0 1 1.44727,-0.69585 q 0.69586,0 2.50825,0.57943 c 0.79375,0.26459 1.50548,0.45509 2.11667,0.59796 a 8.4904792,8.4904792 0 0 0 1.88913,0.21167 q 2.35214,0 3.45545,-0.98425 1.10332,-0.98425 1.09803,-3.10621 v -1.47638 a 5.8631667,5.8631667 0 0 1 -2.43153,2.02671 7.90575,7.90575 0 0 1 -3.43958,0.75142 8.3714167,8.3714167 0 0 1 -4.39737,-1.15888 7.8554792,7.8554794 0 0 1 -3.01096,-3.29935 10.866437,10.866437 0 0 1 -1.0795,-4.95829 10.9855,10.9855 0 0 1 1.0795,-4.97681 7.9771875,7.9771875 0 0 1 3.01096,-3.33905 8.28675,8.28675 0 0 1 4.39737,-1.17739 7.8343125,7.8343122 0 0 1 3.48721,0.78581 5.7758542,5.7758542 0 0 1 2.43152,2.11667 2.7543125,2.7543125 0 0 1 0.98425,-2.06375 3.5851042,3.5851039 0 0 1 2.38125,-0.75407 3.4686875,3.4686875 0 0 1 2.45533,0.86784 z m -6.8236,11.7131 q 1.00012,-1.11918 1.00277,-3.175 0.003,-2.05581 -1.00277,-3.20146 -1.00277,-1.15887 -2.81781,-1.15887 -1.81504,0 -2.77813,1.13771 -1.00541,1.14035 -1.00277,3.22262 0,2.00819 1.02129,3.1459 a 3.5216042,3.5216042 0 0 0 2.75961,1.13771 q 1.81504,0.0106 2.81781,-1.10861 z"
       id="path855"
       style="fill:url(#linear-gradient-4);stroke-width:0.264583" />
  </g>
</svg>
